<svg width="30" height="30" viewBox="0 0 30 30" fill="none" xmlns="http://www.w3.org/2000/svg">
<path fill-rule="evenodd" clip-rule="evenodd" d="M15 7.5C15.2486 7.5 15.4871 7.59877 15.6629 7.77459C15.8387 7.9504 15.9375 8.18886 15.9375 8.4375V19.2994L19.9612 15.2737C20.0484 15.1866 20.1519 15.1174 20.2658 15.0703C20.3797 15.0231 20.5017 14.9988 20.625 14.9988C20.7483 14.9988 20.8703 15.0231 20.9842 15.0703C21.0981 15.1174 21.2016 15.1866 21.2887 15.2737C21.3759 15.3609 21.4451 15.4644 21.4922 15.5783C21.5394 15.6922 21.5637 15.8142 21.5637 15.9375C21.5637 16.0608 21.5394 16.1828 21.4922 16.2967C21.4451 16.4106 21.3759 16.5141 21.2887 16.6012L15.6637 22.2262C15.5767 22.3136 15.4732 22.3828 15.3593 22.4301C15.2454 22.4773 15.1233 22.5017 15 22.5017C14.8767 22.5017 14.7546 22.4773 14.6407 22.4301C14.5268 22.3828 14.4233 22.3136 14.3362 22.2262L8.71124 16.6012C8.62408 16.5141 8.55494 16.4106 8.50776 16.2967C8.46059 16.1828 8.43631 16.0608 8.43631 15.9375C8.43631 15.8142 8.46059 15.6922 8.50776 15.5783C8.55494 15.4644 8.62408 15.3609 8.71124 15.2737C8.88728 15.0977 9.12604 14.9988 9.37499 14.9988C9.49826 14.9988 9.62033 15.0231 9.73421 15.0703C9.8481 15.1174 9.95158 15.1866 10.0387 15.2737L14.0625 19.2994V8.4375C14.0625 8.18886 14.1613 7.9504 14.3371 7.77459C14.5129 7.59877 14.7514 7.5 15 7.5Z" fill="white"/>
</svg>
