<svg width="120" height="120" viewBox="0 0 120 120" fill="none" xmlns="http://www.w3.org/2000/svg">
<path d="M95 35H80V27.5C80 24.1848 78.683 21.0054 76.3388 18.6612C73.9946 16.317 70.8152 15 67.5 15H52.5C49.1848 15 46.0054 16.317 43.6612 18.6612C41.317 21.0054 40 24.1848 40 27.5V35H25C21.0218 35 17.2064 36.5804 14.3934 39.3934C11.5804 42.2064 10 46.0218 10 50V90C10 93.9782 11.5804 97.7936 14.3934 100.607C17.2064 103.42 21.0218 105 25 105H95C98.9782 105 102.794 103.42 105.607 100.607C108.42 97.7936 110 93.9782 110 90V50C110 46.0218 108.42 42.2064 105.607 39.3934C102.794 36.5804 98.9782 35 95 35ZM50 27.5C50 26.837 50.2634 26.2011 50.7322 25.7322C51.2011 25.2634 51.837 25 52.5 25H67.5C68.163 25 68.7989 25.2634 69.2678 25.7322C69.7366 26.2011 70 26.837 70 27.5V35H50V27.5ZM100 90C100 91.3261 99.4732 92.5979 98.5355 93.5355C97.5979 94.4732 96.3261 95 95 95H25C23.6739 95 22.4021 94.4732 21.4645 93.5355C20.5268 92.5979 20 91.3261 20 90V50C20 48.6739 20.5268 47.4021 21.4645 46.4645C22.4021 45.5268 23.6739 45 25 45H95C96.3261 45 97.5979 45.5268 98.5355 46.4645C99.4732 47.4021 100 48.6739 100 50V90Z" fill="#161616"/>
<path d="M60 52.5C56.5388 52.5 53.1554 53.5264 50.2775 55.4493C47.3997 57.3722 45.1566 60.1053 43.8321 63.303C42.5076 66.5007 42.161 70.0194 42.8363 73.4141C43.5115 76.8088 45.1782 79.927 47.6256 82.3744C50.0731 84.8218 53.1912 86.4885 56.5859 87.1637C59.9806 87.839 63.4992 87.4924 66.697 86.1679C69.8947 84.8434 72.6278 82.6003 74.5507 79.7225C76.4736 76.8446 77.5 73.4612 77.5 70C77.5 65.3587 75.6562 60.9075 72.3744 57.6256C69.0925 54.3437 64.6413 52.5 60 52.5ZM60 77.5C58.5166 77.5 57.0666 77.0601 55.8332 76.236C54.5999 75.4119 53.6386 74.2406 53.0709 72.8701C52.5032 71.4997 52.3547 69.9917 52.6441 68.5368C52.9335 67.082 53.6478 65.7456 54.6967 64.6967C55.7456 63.6478 57.082 62.9335 58.5368 62.6441C59.9917 62.3547 61.4997 62.5032 62.8701 63.0709C64.2406 63.6386 65.4119 64.5999 66.236 65.8332C67.0601 67.0666 67.5 68.5166 67.5 70C67.5 71.9891 66.7098 73.8968 65.3033 75.3033C63.8968 76.7098 61.9891 77.5 60 77.5Z" fill="#161616"/>
</svg>
