<svg width="100" height="100" viewBox="0 0 100 100" fill="none" xmlns="http://www.w3.org/2000/svg">
<path d="M50 4.16663C45.5797 4.16663 41.3405 5.92257 38.2149 9.04818C35.0893 12.1738 33.3333 16.413 33.3333 20.8333V45.8333C33.3333 50.2536 35.0893 54.4928 38.2149 57.6184C41.3405 60.744 45.5797 62.5 50 62.5C54.4203 62.5 58.6595 60.744 61.7851 57.6184C64.9107 54.4928 66.6666 50.2536 66.6666 45.8333V20.8333C66.6666 16.413 64.9107 12.1738 61.7851 9.04818C58.6595 5.92257 54.4203 4.16663 50 4.16663ZM41.6667 20.8333C41.6667 18.6232 42.5446 16.5035 44.1074 14.9407C45.6702 13.3779 47.7898 12.5 50 12.5C52.2101 12.5 54.3297 13.3779 55.8925 14.9407C57.4553 16.5035 58.3333 18.6232 58.3333 20.8333V45.8333C58.3333 48.0434 57.4553 50.163 55.8925 51.7258C54.3297 53.2887 52.2101 54.1666 50 54.1666C47.7898 54.1666 45.6702 53.2887 44.1074 51.7258C42.5446 50.163 41.6667 48.0434 41.6667 45.8333V20.8333ZM25 41.6666C25 40.5616 24.561 39.5017 23.7796 38.7203C22.9982 37.9389 21.9384 37.5 20.8333 37.5C19.7283 37.5 18.6684 37.9389 17.887 38.7203C17.1056 39.5017 16.6667 40.5616 16.6667 41.6666V45.8333C16.6668 53.9525 19.6299 61.7926 25 67.8822C30.3701 73.9719 37.7779 77.8925 45.8333 78.9083V91.6666C45.8333 92.7717 46.2723 93.8315 47.0537 94.6129C47.8351 95.3943 48.8949 95.8333 50 95.8333C51.1051 95.8333 52.1649 95.3943 52.9463 94.6129C53.7277 93.8315 54.1666 92.7717 54.1666 91.6666V78.9083C62.2221 77.8925 69.6299 73.9719 75 67.8822C80.37 61.7926 83.3332 53.9525 83.3333 45.8333V41.6666C83.3333 40.5616 82.8943 39.5017 82.1129 38.7203C81.3315 37.9389 80.2717 37.5 79.1666 37.5C78.0616 37.5 77.0018 37.9389 76.2204 38.7203C75.439 39.5017 75 40.5616 75 41.6666V45.8333C75 52.4637 72.3661 58.8226 67.6777 63.511C62.9892 68.1994 56.6304 70.8333 50 70.8333C43.3696 70.8333 37.0107 68.1994 32.3223 63.511C27.6339 58.8226 25 52.4637 25 45.8333V41.6666Z" fill="#161616"/>
</svg>
