<svg width="100" height="100" viewBox="0 0 100 100" fill="none" xmlns="http://www.w3.org/2000/svg">
<path d="M87.1667 9.91666C82.4889 8.86903 77.7103 8.33807 72.9167 8.33333C68.3895 8.04588 63.8502 8.65624 59.5598 10.1293C55.2694 11.6023 51.3125 13.909 47.9167 16.9167C43.4444 21.3889 39.0139 25.8472 34.625 30.2917C29.5833 29.75 17.625 29.4583 9.625 37.5417C8.84895 38.3223 8.41336 39.3784 8.41336 40.4792C8.41336 41.5799 8.84895 42.636 9.625 43.4167L56.7083 90.5833C57.489 91.3594 58.5451 91.795 59.6458 91.795C60.7466 91.795 61.8027 91.3594 62.5833 90.5833C70.7083 82.25 70.4583 70.5 69.9583 65.5833L83.3333 52.25C96.625 38.9583 90.5833 14 90.3333 12.9583C90.141 12.2068 89.7426 11.5239 89.1832 10.9865C88.6237 10.4491 87.9253 10.0786 87.1667 9.91666ZM77.3333 46.375L62.5 61.125C62.0196 61.6101 61.6658 62.2057 61.4696 62.8596C61.2735 63.5135 61.241 64.2056 61.375 64.875C62.2751 70.4492 61.4917 76.1652 59.125 81.2917L18.8333 40.9167C24.041 38.5199 29.8625 37.7922 35.5 38.8333C36.167 38.9202 36.8451 38.8443 37.4763 38.6121C38.1076 38.3799 38.6733 37.9983 39.125 37.5C39.125 37.5 44.9583 31.4583 53.75 22.6667C59.1559 18.3255 66.0003 16.1829 72.9167 16.6667C76.1699 16.6828 79.4166 16.9615 82.625 17.5C83.625 23.4583 85.2083 38.5 77.3333 46.375Z" fill="#161616"/>
<path d="M65.5416 42.9167C70.144 42.9167 73.875 39.1857 73.875 34.5833C73.875 29.981 70.144 26.25 65.5416 26.25C60.9393 26.25 57.2083 29.981 57.2083 34.5833C57.2083 39.1857 60.9393 42.9167 65.5416 42.9167Z" fill="#161616"/>
<path d="M20.8333 66.6666C12.5 70.8333 12.5 87.5 12.5 87.5C20.2128 87.2799 27.5965 84.3264 33.3333 79.1666L20.8333 66.6666Z" fill="#161616"/>
</svg>
