<svg width="1030" height="379" viewBox="0 0 1030 379" fill="none" xmlns="http://www.w3.org/2000/svg">
<path d="M70.3 241.45L115.9 133.15H125.59L67.07 270.14H61.75L3.04 133.15H13.3L58.9 241.07C62.0667 248.797 64.03 254.117 64.79 257.03C65.8033 252.977 67.64 247.783 70.3 241.45ZM153.664 269V133.15H216.744V141.13H162.784V191.1H211.614V198.89H162.784V261.02H218.834V269H153.664ZM540.041 250.95C527.501 237.397 521.231 220.74 521.231 200.98C521.231 181.22 527.501 164.627 540.041 151.2C552.708 137.647 568.668 130.87 587.921 130.87C607.174 130.87 623.134 137.647 635.801 151.2C648.468 164.627 654.801 181.22 654.801 200.98C654.801 220.74 648.468 237.397 635.801 250.95C623.134 264.503 607.174 271.28 587.921 271.28C568.668 271.28 552.708 264.503 540.041 250.95ZM546.881 157.09C536.368 168.87 531.111 183.5 531.111 200.98C531.111 218.46 536.368 233.153 546.881 245.06C557.521 256.967 571.201 262.92 587.921 262.92C604.768 262.92 618.448 256.967 628.961 245.06C639.601 233.153 644.921 218.46 644.921 200.98C644.921 183.5 639.601 168.87 628.961 157.09C618.448 145.183 604.768 139.23 587.921 139.23C571.074 139.23 557.394 145.183 546.881 157.09ZM761.165 261.97H756.035L716.325 165.83C714.045 160.51 712.209 155.823 710.815 151.77L708.915 166.21L693.335 269H684.025L706.445 132.01H711.765L754.135 232.71C756.289 237.397 757.999 241.83 759.265 246.01C759.645 244.617 761.609 240.247 765.155 232.9L812.465 132.01H817.595L838.305 269H828.805L813.985 165.83C812.972 159.37 812.465 154.493 812.465 151.2C812.339 151.327 812.022 151.96 811.515 153.1C811.135 154.113 810.375 155.887 809.235 158.42C808.222 160.827 807.145 163.36 806.005 166.02L761.165 261.97ZM939.847 261.97H934.717L895.007 165.83C892.727 160.51 890.89 155.823 889.497 151.77L887.597 166.21L872.017 269H862.707L885.127 132.01H890.447L932.817 232.71C934.97 237.397 936.68 241.83 937.947 246.01C938.327 244.617 940.29 240.247 943.837 232.9L991.147 132.01H996.277L1016.99 269H1007.49L992.667 165.83C991.654 159.37 991.147 154.493 991.147 151.2C991.02 151.327 990.704 151.96 990.197 153.1C989.817 154.113 989.057 155.887 987.917 158.42C986.904 160.827 985.827 163.36 984.687 166.02L939.847 261.97Z" fill="url(#paint0_linear_15_2)"/>
<path d="M415 356C393.4 356 373.133 352 354.2 344C335.533 335.733 319.133 324.4 305 310C291.133 295.333 280.2 278.267 272.2 258.8C264.467 239.333 260.6 218.267 260.6 195.6C260.6 173.2 264.467 152.4 272.2 133.2C280.2 113.733 291.133 96.8 305 82.4C319.133 67.7333 335.533 56.2667 354.2 48C372.867 39.7333 393.133 35.6 415 35.6C435.533 35.6 453.133 38.2667 467.8 43.6C482.733 48.9333 497.667 57.7333 512.6 70C515.8 72.6666 517.933 75.2 519 77.6C520.067 80 520.6 82.9333 520.6 86.4C520.6 91.4667 518.733 95.7333 515 99.2C511.533 102.4 507.267 104.267 502.2 104.8C497.133 105.067 492.2 103.333 487.4 99.6C477.533 91.0666 467.267 84.5333 456.6 80C446.2 75.4667 432.333 73.2 415 73.2C399.267 73.2 384.467 76.4 370.6 82.8C356.733 89.2 344.467 98 333.8 109.2C323.4 120.4 315.267 133.467 309.4 148.4C303.533 163.067 300.6 178.8 300.6 195.6C300.6 212.667 303.533 228.667 309.4 243.6C315.267 258.267 323.4 271.2 333.8 282.4C344.467 293.6 356.733 302.4 370.6 308.8C384.467 314.933 399.267 318 415 318C428.6 318 441.4 315.733 453.4 311.2C465.667 306.4 477.4 299.867 488.6 291.6C493.4 288.133 498.067 286.667 502.6 287.2C507.4 287.467 511.4 289.333 514.6 292.8C517.8 296 519.4 300.533 519.4 306.4C519.4 312 517.267 316.933 513 321.2C484.2 344.4 451.533 356 415 356Z" fill="url(#paint1_linear_15_2)"/>
<path d="M414 268.8C404.28 268.8 395.16 267 386.64 263.4C378.24 259.68 370.86 254.58 364.5 248.1C358.26 241.5 353.34 233.82 349.74 225.06C346.26 216.3 344.52 206.82 344.52 196.62C344.52 186.54 346.26 177.18 349.74 168.54C353.34 159.78 358.26 152.16 364.5 145.68C370.86 139.08 378.24 133.92 386.64 130.2C395.04 126.48 404.16 124.62 414 124.62C423.24 124.62 431.16 125.82 437.76 128.22C444.48 130.62 451.2 134.58 457.92 140.1C459.36 141.3 460.32 142.44 460.8 143.52C461.28 144.6 461.52 145.92 461.52 147.48C461.52 149.76 460.68 151.68 459 153.24C457.44 154.68 455.52 155.52 453.24 155.76C450.96 155.88 448.74 155.1 446.58 153.42C442.14 149.58 437.52 146.64 432.72 144.6C428.04 142.56 421.8 141.54 414 141.54C406.92 141.54 400.26 142.98 394.02 145.86C387.78 148.74 382.26 152.7 377.46 157.74C372.78 162.78 369.12 168.66 366.48 175.38C363.84 181.98 362.52 189.06 362.52 196.62C362.52 204.3 363.84 211.5 366.48 218.22C369.12 224.82 372.78 230.64 377.46 235.68C382.26 240.72 387.78 244.68 394.02 247.56C400.26 250.32 406.92 251.7 414 251.7C420.12 251.7 425.88 250.68 431.28 248.64C436.8 246.48 442.08 243.54 447.12 239.82C449.28 238.26 451.38 237.6 453.42 237.84C455.58 237.96 457.38 238.8 458.82 240.36C460.26 241.8 460.98 243.84 460.98 246.48C460.98 249 460.02 251.22 458.1 253.14C445.14 263.58 430.44 268.8 414 268.8Z" fill="url(#paint2_linear_15_2)"/>
<line x1="411" y1="132" x2="411" y2="12" stroke="#FF0000" stroke-width="12"/>
<line x1="411" y1="379" x2="411" y2="259" stroke="#FF3333" stroke-width="12"/>
<line x1="241" y1="194" x2="361" y2="194" stroke="#FF1E1E" stroke-width="12"/>
<path d="M592.6 352H579.6V317H592.6C594.733 317 596.567 317.467 598.1 318.4C599.667 319.333 600.883 320.633 601.75 322.3C602.65 323.933 603.3 325.733 603.7 327.7C604.1 329.633 604.3 331.767 604.3 334.1C604.3 336.433 604.083 338.617 603.65 340.65C603.25 342.683 602.617 344.583 601.75 346.35C600.883 348.083 599.667 349.467 598.1 350.5C596.533 351.5 594.7 352 592.6 352ZM600.3 345C601.033 343.367 601.567 341.65 601.9 339.85C602.233 338.017 602.4 335.917 602.4 333.55C602.4 331.183 602.117 328.917 601.55 326.75C601.017 324.55 599.983 322.667 598.45 321.1C596.917 319.5 594.967 318.7 592.6 318.7H581.4V350.3H592.6C594.4 350.3 595.95 349.817 597.25 348.85C598.583 347.883 599.6 346.6 600.3 345ZM622.921 352V327H624.671V352H622.921ZM622.921 319.75V317H624.671V319.75H622.921ZM663.589 356.05C663.589 358.883 662.739 360.9 661.039 362.1C659.372 363.333 656.589 363.95 652.689 363.95C648.822 363.95 646.239 363.383 644.939 362.25C643.672 361.15 643.039 359.067 643.039 356C643.039 354.1 643.672 352.583 644.939 351.45C645.405 351.017 646.189 350.4 647.289 349.6C646.555 349.133 646.189 348.05 646.189 346.35C646.189 345.883 646.572 344.85 647.339 343.25L647.689 342.45C644.822 341.517 643.389 338.983 643.389 334.85C643.389 329.283 646.239 326.5 651.939 326.5C653.672 326.5 655.205 326.667 656.539 327L657.239 327.15L664.239 327V328.75H658.839C660.172 329.983 660.839 332.067 660.839 335C660.839 337.9 660.105 339.967 658.639 341.2C657.205 342.433 654.905 343.05 651.739 343.05C650.739 343.05 649.839 342.983 649.039 342.85C648.272 344.75 647.889 345.95 647.889 346.45C647.889 346.95 647.922 347.333 647.989 347.6C648.055 347.867 648.189 348.117 648.389 348.35C648.589 348.583 648.972 348.733 649.539 348.8C650.572 348.967 652.522 349.05 655.389 349.05C658.255 349.05 660.339 349.517 661.639 350.45C662.939 351.35 663.589 353.217 663.589 356.05ZM644.839 355.95C644.839 358.417 645.355 360.1 646.389 361C647.455 361.9 649.589 362.35 652.789 362.35C656.022 362.35 658.322 361.867 659.689 360.9C661.055 359.967 661.739 358.35 661.739 356.05C661.739 353.783 661.239 352.317 660.239 351.65C659.239 350.983 657.372 350.65 654.639 350.65L648.589 350.5C647.089 351.533 646.089 352.4 645.589 353.1C645.089 353.833 644.839 354.783 644.839 355.95ZM645.189 334.85C645.189 337.317 645.705 339.033 646.739 340C647.772 340.967 649.539 341.45 652.039 341.45C654.572 341.45 656.355 340.983 657.389 340.05C658.455 339.083 658.989 337.35 658.989 334.85C658.989 332.35 658.455 330.6 657.389 329.6C656.355 328.6 654.572 328.1 652.039 328.1C649.539 328.1 647.772 328.617 646.739 329.65C645.705 330.65 645.189 332.383 645.189 334.85ZM680.638 352V327H682.388V352H680.638ZM680.638 319.75V317H682.388V319.75H680.638ZM714.105 328.6H705.005V341.7C705.005 345.533 705.272 348.033 705.805 349.2C706.372 350.333 707.639 350.9 709.605 350.9L714.505 350.5L714.655 352.1C712.455 352.367 710.772 352.5 709.605 352.5C707.239 352.5 705.589 351.9 704.655 350.7C703.722 349.467 703.255 347.1 703.255 343.6V328.6H699.305V327H703.255V318.85H705.005V327H714.105V328.6ZM746.995 334.35V348.75C747.129 349.95 748.379 350.65 750.745 350.85L750.645 352.4C748.212 352.4 746.495 351.7 745.495 350.3C742.095 351.733 738.729 352.45 735.395 352.45C733.329 352.45 731.712 351.833 730.545 350.6C729.412 349.367 728.845 347.617 728.845 345.35C728.845 343.05 729.395 341.3 730.495 340.1C731.595 338.9 733.345 338.183 735.745 337.95L745.245 336.95V334.35C745.245 332.217 744.779 330.667 743.845 329.7C742.945 328.733 741.562 328.25 739.695 328.25C737.795 328.25 735.162 328.467 731.795 328.9L730.245 329.1L730.095 327.45C733.829 326.85 737.029 326.55 739.695 326.55C744.562 326.55 746.995 329.15 746.995 334.35ZM735.945 339.5C734.045 339.7 732.695 340.25 731.895 341.15C731.095 342.05 730.695 343.4 730.695 345.2C730.695 347 731.095 348.4 731.895 349.4C732.729 350.367 733.879 350.85 735.345 350.85C736.812 350.85 738.362 350.683 739.995 350.35C741.629 349.983 742.912 349.633 743.845 349.3L745.245 348.8V338.55L735.945 339.5ZM766.951 352V315.5H768.701V352H766.951ZM808.341 352L819.091 317H824.391L835.141 352H833.341L830.091 341.25H813.391L810.141 352H808.341ZM820.341 318.7L813.941 339.55H829.541L823.141 318.7H820.341ZM871.042 356.05C871.042 358.883 870.192 360.9 868.492 362.1C866.825 363.333 864.042 363.95 860.142 363.95C856.275 363.95 853.692 363.383 852.392 362.25C851.125 361.15 850.492 359.067 850.492 356C850.492 354.1 851.125 352.583 852.392 351.45C852.858 351.017 853.642 350.4 854.742 349.6C854.008 349.133 853.642 348.05 853.642 346.35C853.642 345.883 854.025 344.85 854.792 343.25L855.142 342.45C852.275 341.517 850.842 338.983 850.842 334.85C850.842 329.283 853.692 326.5 859.392 326.5C861.125 326.5 862.658 326.667 863.992 327L864.692 327.15L871.692 327V328.75H866.292C867.625 329.983 868.292 332.067 868.292 335C868.292 337.9 867.558 339.967 866.092 341.2C864.658 342.433 862.358 343.05 859.192 343.05C858.192 343.05 857.292 342.983 856.492 342.85C855.725 344.75 855.342 345.95 855.342 346.45C855.342 346.95 855.375 347.333 855.442 347.6C855.508 347.867 855.642 348.117 855.842 348.35C856.042 348.583 856.425 348.733 856.992 348.8C858.025 348.967 859.975 349.05 862.842 349.05C865.708 349.05 867.792 349.517 869.092 350.45C870.392 351.35 871.042 353.217 871.042 356.05ZM852.292 355.95C852.292 358.417 852.808 360.1 853.842 361C854.908 361.9 857.042 362.35 860.242 362.35C863.475 362.35 865.775 361.867 867.142 360.9C868.508 359.967 869.192 358.35 869.192 356.05C869.192 353.783 868.692 352.317 867.692 351.65C866.692 350.983 864.825 350.65 862.092 350.65L856.042 350.5C854.542 351.533 853.542 352.4 853.042 353.1C852.542 353.833 852.292 354.783 852.292 355.95ZM852.642 334.85C852.642 337.317 853.158 339.033 854.192 340C855.225 340.967 856.992 341.45 859.492 341.45C862.025 341.45 863.808 340.983 864.842 340.05C865.908 339.083 866.442 337.35 866.442 334.85C866.442 332.35 865.908 330.6 864.842 329.6C863.808 328.6 862.025 328.1 859.492 328.1C856.992 328.1 855.225 328.617 854.192 329.65C853.158 330.65 852.642 332.383 852.642 334.85ZM904.091 350.5L905.591 350.4L905.691 352C901.957 352.3 898.874 352.45 896.441 352.45C892.907 352.417 890.457 351.35 889.091 349.25C887.724 347.117 887.041 343.867 887.041 339.5C887.041 330.867 890.407 326.55 897.141 326.55C900.307 326.55 902.674 327.5 904.241 329.4C905.841 331.3 906.641 334.35 906.641 338.55V340.2H888.891C888.891 343.8 889.457 346.483 890.591 348.25C891.724 349.983 893.607 350.85 896.241 350.85C898.874 350.85 901.491 350.733 904.091 350.5ZM888.891 338.6H904.791C904.791 334.833 904.174 332.15 902.941 330.55C901.741 328.95 899.807 328.15 897.141 328.15C891.641 328.15 888.891 331.633 888.891 338.6ZM926.438 352H924.688V327H926.438V329C929.405 327.367 932.438 326.55 935.538 326.55C938.638 326.55 940.722 327.4 941.788 329.1C942.855 330.767 943.388 334.067 943.388 339V352H941.638V339.1C941.638 334.7 941.238 331.783 940.438 330.35C939.638 328.883 937.888 328.15 935.188 328.15C933.855 328.15 932.455 328.367 930.988 328.8C929.555 329.2 928.438 329.6 927.638 330L926.438 330.65V352ZM971.855 328.15C968.689 328.15 966.489 328.95 965.255 330.55C964.055 332.15 963.455 335.083 963.455 339.35C963.455 343.583 964.005 346.567 965.105 348.3C966.205 350 968.455 350.85 971.855 350.85L977.855 350.4L977.955 352C975.155 352.3 973.122 352.45 971.855 352.45C967.789 352.45 965.055 351.5 963.655 349.6C962.289 347.667 961.605 344.267 961.605 339.4C961.605 334.5 962.372 331.133 963.905 329.3C965.439 327.467 968.089 326.55 971.855 326.55L977.855 327.05L977.755 328.65C975.089 328.317 973.122 328.15 971.855 328.15ZM993.091 327H994.941L1002.29 350.4H1004.34L1011.74 327H1013.59L1002.14 363.5H1000.29L1003.89 352H1000.84L993.091 327Z" fill="#303030"/>
<defs>
<linearGradient id="paint0_linear_15_2" x1="515" y1="105" x2="515" y2="388.5" gradientUnits="userSpaceOnUse">
<stop stop-color="#4E4E4E"/>
<stop offset="1" stop-color="#5A5A5A" stop-opacity="0.68"/>
</linearGradient>
<linearGradient id="paint1_linear_15_2" x1="391" y1="0" x2="391" y2="379" gradientUnits="userSpaceOnUse">
<stop stop-color="#001AFF"/>
<stop offset="1" stop-color="#495BFF"/>
</linearGradient>
<linearGradient id="paint2_linear_15_2" x1="406.5" y1="108" x2="406.5" y2="292" gradientUnits="userSpaceOnUse">
<stop stop-color="#FF0000"/>
<stop offset="1" stop-color="#FF3F3F"/>
</linearGradient>
</defs>
</svg>
