<svg width="544" height="692" viewBox="0 0 544 692" fill="none" xmlns="http://www.w3.org/2000/svg">
<path d="M315 624C277.2 624 241.733 617 208.6 603C175.933 588.533 147.233 568.7 122.5 543.5C98.2333 517.833 79.1 487.967 65.1 453.9C51.5667 419.833 44.8 382.967 44.8 343.3C44.8 304.1 51.5667 267.7 65.1 234.1C79.1 200.033 98.2333 170.4 122.5 145.2C147.233 119.533 175.933 99.4666 208.6 85C241.267 70.5333 276.733 63.3 315 63.3C350.933 63.3 381.733 67.9667 407.4 77.3C433.533 86.6333 459.667 102.033 485.8 123.5C491.4 128.167 495.133 132.6 497 136.8C498.867 141 499.8 146.133 499.8 152.2C499.8 161.067 496.533 168.533 490 174.6C483.933 180.2 476.467 183.467 467.6 184.4C458.733 184.867 450.1 181.833 441.7 175.3C424.433 160.367 406.467 148.933 387.8 141C369.6 133.067 345.333 129.1 315 129.1C287.467 129.1 261.567 134.7 237.3 145.9C213.033 157.1 191.567 172.5 172.9 192.1C154.7 211.7 140.467 234.567 130.2 260.7C119.933 286.367 114.8 313.9 114.8 343.3C114.8 373.167 119.933 401.167 130.2 427.3C140.467 452.967 154.7 475.6 172.9 495.2C191.567 514.8 213.033 530.2 237.3 541.4C261.567 552.133 287.467 557.5 315 557.5C338.8 557.5 361.2 553.533 382.2 545.6C403.667 537.2 424.2 525.767 443.8 511.3C452.2 505.233 460.367 502.667 468.3 503.6C476.7 504.067 483.7 507.333 489.3 513.4C494.9 519 497.7 526.933 497.7 537.2C497.7 547 493.967 555.633 486.5 563.1C436.1 603.7 378.933 624 315 624Z" fill="url(#paint0_linear_15_3)"/>
<path d="M319 473.2C301.72 473.2 285.507 470 270.36 463.6C255.427 456.987 242.307 447.92 231 436.4C219.907 424.667 211.16 411.013 204.76 395.44C198.573 379.867 195.48 363.013 195.48 344.88C195.48 326.96 198.573 310.32 204.76 294.96C211.16 279.387 219.907 265.84 231 254.32C242.307 242.587 255.427 233.413 270.36 226.8C285.293 220.187 301.507 216.88 319 216.88C335.427 216.88 349.507 219.013 361.24 223.28C373.187 227.547 385.133 234.587 397.08 244.4C399.64 246.533 401.347 248.56 402.2 250.48C403.053 252.4 403.48 254.747 403.48 257.52C403.48 261.573 401.987 264.987 399 267.76C396.227 270.32 392.813 271.813 388.76 272.24C384.707 272.453 380.76 271.067 376.92 268.08C369.027 261.253 360.813 256.027 352.28 252.4C343.96 248.773 332.867 246.96 319 246.96C306.413 246.96 294.573 249.52 283.48 254.64C272.387 259.76 262.573 266.8 254.04 275.76C245.72 284.72 239.213 295.173 234.52 307.12C229.827 318.853 227.48 331.44 227.48 344.88C227.48 358.533 229.827 371.333 234.52 383.28C239.213 395.013 245.72 405.36 254.04 414.32C262.573 423.28 272.387 430.32 283.48 435.44C294.573 440.347 306.413 442.8 319 442.8C329.88 442.8 340.12 440.987 349.72 437.36C359.533 433.52 368.92 428.293 377.88 421.68C381.72 418.907 385.453 417.733 389.08 418.16C392.92 418.373 396.12 419.867 398.68 422.64C401.24 425.2 402.52 428.827 402.52 433.52C402.52 438 400.813 441.947 397.4 445.36C374.36 463.92 348.227 473.2 319 473.2Z" fill="url(#paint1_linear_15_3)"/>
<line x1="318" y1="667" x2="318" y2="447" stroke="#FF3333" stroke-width="18"/>
<line x1="318" y1="235" x2="318" y2="15" stroke="#FF0707" stroke-width="18"/>
<line y1="344" x2="220" y2="344" stroke="#FF1E1E" stroke-width="18"/>
<defs>
<linearGradient id="paint0_linear_15_3" x1="272" y1="0" x2="272" y2="692" gradientUnits="userSpaceOnUse">
<stop stop-color="#001AFF"/>
<stop offset="1" stop-color="#495BFF"/>
</linearGradient>
<linearGradient id="paint1_linear_15_3" x1="292" y1="188" x2="292" y2="485" gradientUnits="userSpaceOnUse">
<stop stop-color="#FF0000"/>
<stop offset="1" stop-color="#FF3F3F"/>
</linearGradient>
</defs>
</svg>
